<svg width="189" height="36" viewBox="0 0 189 36" fill="none" xmlns="http://www.w3.org/2000/svg">
<path fill-rule="evenodd" clip-rule="evenodd" d="M27.8333 18C27.8333 25.0877 22.0877 30.8333 15 30.8333C7.91234 30.8333 2.16666 25.0877 2.16666 18C2.16666 10.9123 7.91234 5.16666 15 5.16666C22.0877 5.16666 27.8333 10.9123 27.8333 18ZM30 18C30 26.2843 23.2843 33 15 33C6.71573 33 0 26.2843 0 18C0 9.71573 6.71573 3 15 3C23.2843 3 30 9.71573 30 18ZM23.2759 11.2759C23.2759 12.1329 22.5812 12.8276 21.7242 12.8276C20.8672 12.8276 20.1725 12.1329 20.1725 11.2759C20.1725 10.4189 20.8672 9.72418 21.7242 9.72418C22.5812 9.72418 23.2759 10.4189 23.2759 11.2759ZM10.4879 19.209C11.1556 21.7009 13.717 23.1797 16.2089 22.512C18.7008 21.8443 20.1796 19.2829 19.5119 16.791C18.8442 14.2991 16.2828 12.8203 13.7909 13.488C11.299 14.1557 9.82015 16.7171 10.4879 19.209ZM8.39503 19.7698C9.37244 23.4175 13.1219 25.5823 16.7696 24.6049C20.4174 23.6274 22.5821 19.878 21.6047 16.2302C20.6273 12.5825 16.8779 10.4177 13.2301 11.3952C9.58236 12.3726 7.41762 16.122 8.39503 19.7698Z" fill="#FF0069"/>
<path d="M47.5569 28.3958C45.0687 28.3958 43.0895 27.7173 41.6192 26.3601C40.1489 24.984 39.4137 23.0236 39.4137 20.4789V15.7287C39.4137 13.184 40.1489 11.233 41.6192 9.87579C43.0895 8.49975 45.0687 7.81172 47.5569 7.81172C50.0451 7.81172 52.0243 8.49975 53.4946 9.87579C54.9649 11.233 55.7001 13.184 55.7001 15.7287V20.4789C55.7001 23.0236 54.9649 24.984 53.4946 26.3601C52.0243 27.7173 50.0451 28.3958 47.5569 28.3958ZM47.5569 25.0594C48.9518 25.0594 50.0357 24.6541 50.8085 23.8436C51.5814 23.033 51.9678 21.9492 51.9678 20.592V15.6156C51.9678 14.2584 51.5814 13.1745 50.8085 12.364C50.0357 11.5534 48.9518 11.1482 47.5569 11.1482C46.1809 11.1482 45.097 11.5534 44.3053 12.364C43.5325 13.1745 43.146 14.2584 43.146 15.6156V20.592C43.146 21.9492 43.5325 23.033 44.3053 23.8436C45.097 24.6541 46.1809 25.0594 47.5569 25.0594ZM58.2386 33.655V13.9757H61.7447V15.6721H62.2537C62.5741 15.1255 63.0736 14.6448 63.7522 14.2301C64.4308 13.7966 65.4016 13.5798 66.6646 13.5798C67.7956 13.5798 68.8417 13.8626 69.8031 14.428C70.7644 14.9747 71.5373 15.7852 72.1216 16.8597C72.706 17.9341 72.9981 19.2348 72.9981 20.7616V21.214C72.9981 22.7409 72.706 24.0415 72.1216 25.116C71.5373 26.1904 70.7644 27.0104 69.8031 27.5759C68.8417 28.1225 67.7956 28.3958 66.6646 28.3958C65.8163 28.3958 65.1 28.2922 64.5157 28.0848C63.9502 27.8963 63.4883 27.6513 63.1302 27.3497C62.7909 27.0292 62.5176 26.7088 62.3102 26.3883H61.8013V33.655H58.2386ZM65.5901 25.2856C66.7023 25.2856 67.6165 24.9369 68.3328 24.2394C69.0679 23.5231 69.4355 22.4864 69.4355 21.1292V20.8465C69.4355 19.4893 69.0679 18.4619 68.3328 17.7645C67.5976 17.0482 66.6834 16.69 65.5901 16.69C64.4968 16.69 63.5826 17.0482 62.8474 17.7645C62.1123 18.4619 61.7447 19.4893 61.7447 20.8465V21.1292C61.7447 22.4864 62.1123 23.5231 62.8474 24.2394C63.5826 24.9369 64.4968 25.2856 65.5901 25.2856ZM81.8113 28.3958C80.4164 28.3958 79.1817 28.1037 78.1073 27.5193C77.0517 26.9161 76.2223 26.0773 75.6191 25.0029C75.0347 23.9096 74.7426 22.6278 74.7426 21.1575V20.8182C74.7426 19.3479 75.0347 18.0755 75.6191 17.0011C76.2034 15.9078 77.0234 15.0689 78.079 14.4846C79.1346 13.8814 80.3598 13.5798 81.7547 13.5798C83.1308 13.5798 84.3278 13.8908 85.3457 14.5129C86.3635 15.1161 87.1552 15.9643 87.7207 17.0576C88.2862 18.1321 88.569 19.3856 88.569 20.8182V22.034H78.3618C78.3995 22.9953 78.7576 23.7776 79.4362 24.3808C80.1148 24.984 80.9442 25.2856 81.9244 25.2856C82.9234 25.2856 83.6586 25.0688 84.1298 24.6353C84.6011 24.2017 84.9592 23.7211 85.2043 23.1933L88.1166 24.7201C87.8527 25.2102 87.4663 25.7474 86.9573 26.3318C86.4672 26.8973 85.8075 27.3874 84.9781 27.8021C84.1487 28.1979 83.0931 28.3958 81.8113 28.3958ZM78.39 19.3762H84.9498C84.8744 18.5656 84.5445 17.9153 83.9602 17.4252C83.3947 16.9351 82.6501 16.69 81.7265 16.69C80.7651 16.69 80.0017 16.9351 79.4362 17.4252C78.8707 17.9153 78.522 18.5656 78.39 19.3762ZM90.8917 28V13.9757H94.3978V15.8135H94.9068C95.133 15.3234 95.5571 14.8616 96.1791 14.428C96.8012 13.9757 97.7437 13.7495 99.0066 13.7495C100.1 13.7495 101.052 14.0039 101.862 14.5129C102.692 15.003 103.333 15.691 103.785 16.5769C104.237 17.444 104.464 18.4619 104.464 19.6306V28H100.901V19.9134C100.901 18.8578 100.637 18.0661 100.109 17.5383C99.6004 17.0105 98.8653 16.7466 97.9039 16.7466C96.8106 16.7466 95.9624 17.1142 95.3592 17.8493C94.756 18.5656 94.4544 19.5741 94.4544 20.8747V28H90.8917ZM114.196 28.3958C112.839 28.3958 111.604 28.0942 110.492 27.4911C109.399 26.869 108.522 25.9736 107.863 24.8049C107.222 23.6174 106.901 22.1754 106.901 20.4789V15.7287C106.901 13.184 107.618 11.233 109.05 9.87579C110.483 8.49975 112.424 7.81172 114.875 7.81172C117.306 7.81172 119.182 8.46205 120.502 9.76269C121.84 11.0445 122.509 12.7881 122.509 14.9935V15.1066H118.833V14.8804C118.833 14.183 118.682 13.5515 118.381 12.986C118.098 12.4205 117.665 11.9776 117.08 11.6571C116.496 11.3178 115.761 11.1482 114.875 11.1482C113.555 11.1482 112.519 11.5534 111.765 12.364C111.011 13.1745 110.634 14.2772 110.634 15.6721V20.5354C110.634 21.9115 111.011 23.0236 111.765 23.8719C112.519 24.7013 113.574 25.116 114.931 25.116C116.289 25.116 117.278 24.7578 117.9 24.0415C118.522 23.3252 118.833 22.4204 118.833 21.3271V21.0444H114.14V17.8776H122.509V28H119.059V26.1056H118.551C118.419 26.426 118.202 26.7653 117.9 27.1235C117.617 27.4816 117.184 27.7832 116.6 28.0283C116.015 28.2733 115.214 28.3958 114.196 28.3958ZM125.34 28V13.9757H128.846V15.559H129.355C129.562 14.9935 129.901 14.5788 130.373 14.3149C130.863 14.0511 131.428 13.9191 132.069 13.9191H133.766V17.0859H132.012C131.108 17.0859 130.363 17.3309 129.779 17.821C129.194 18.2923 128.902 19.0274 128.902 20.0265V28H125.34ZM139.725 28.3958C138.726 28.3958 137.83 28.2262 137.039 27.8869C136.247 27.5288 135.616 27.0198 135.144 26.3601C134.692 25.6815 134.466 24.8615 134.466 23.9001C134.466 22.9388 134.692 22.1377 135.144 21.4968C135.616 20.837 136.257 20.3469 137.067 20.0265C137.896 19.6872 138.839 19.5175 139.895 19.5175H143.74V18.7258C143.74 18.0661 143.533 17.5289 143.118 17.1142C142.703 16.6806 142.043 16.4638 141.139 16.4638C140.253 16.4638 139.593 16.6712 139.159 17.0859C138.726 17.4817 138.443 18.0001 138.311 18.641L135.031 17.5383C135.257 16.822 135.616 16.1717 136.106 15.5873C136.615 14.9841 137.284 14.5034 138.113 14.1453C138.961 13.7683 139.989 13.5798 141.195 13.5798C143.042 13.5798 144.503 14.0416 145.578 14.9653C146.652 15.8889 147.189 17.2273 147.189 18.9803V24.2112C147.189 24.7767 147.453 25.0594 147.981 25.0594H149.112V28H146.737C146.04 28 145.465 27.8304 145.012 27.4911C144.56 27.1518 144.334 26.6994 144.334 26.1339V26.1056H143.796C143.721 26.3318 143.551 26.6334 143.288 27.0104C143.024 27.3685 142.609 27.689 142.043 27.9717C141.478 28.2545 140.705 28.3958 139.725 28.3958ZM140.347 25.5118C141.346 25.5118 142.157 25.2385 142.779 24.6918C143.419 24.1263 143.74 23.3818 143.74 22.4581V22.1754H140.149C139.489 22.1754 138.971 22.3167 138.594 22.5995C138.217 22.8822 138.028 23.2781 138.028 23.787C138.028 24.296 138.226 24.7107 138.622 25.0311C139.018 25.3516 139.593 25.5118 140.347 25.5118ZM150.869 28V13.9757H154.375V15.5025H154.884C155.129 15.0312 155.534 14.626 156.1 14.2867C156.665 13.9285 157.41 13.7495 158.333 13.7495C159.332 13.7495 160.133 13.9474 160.737 14.3432C161.34 14.7202 161.802 15.2197 162.122 15.8418H162.631C162.952 15.2386 163.404 14.7391 163.988 14.3432C164.573 13.9474 165.402 13.7495 166.476 13.7495C167.344 13.7495 168.126 13.938 168.823 14.3149C169.54 14.6731 170.105 15.2292 170.52 15.9832C170.953 16.7183 171.17 17.6514 171.17 18.7824V28H167.607V19.0369C167.607 18.264 167.41 17.6891 167.014 17.3121C166.618 16.9162 166.062 16.7183 165.345 16.7183C164.535 16.7183 163.903 16.9822 163.451 17.51C163.018 18.019 162.801 18.7541 162.801 19.7155V28H159.238V19.0369C159.238 18.264 159.04 17.6891 158.644 17.3121C158.248 16.9162 157.692 16.7183 156.976 16.7183C156.166 16.7183 155.534 16.9822 155.082 17.51C154.648 18.019 154.431 18.7541 154.431 19.7155V28H150.869ZM180.544 28.3958C179.149 28.3958 177.914 28.1037 176.84 27.5193C175.784 26.9161 174.955 26.0773 174.351 25.0029C173.767 23.9096 173.475 22.6278 173.475 21.1575V20.8182C173.475 19.3479 173.767 18.0755 174.351 17.0011C174.936 15.9078 175.756 15.0689 176.811 14.4846C177.867 13.8814 179.092 13.5798 180.487 13.5798C181.863 13.5798 183.06 13.8908 184.078 14.5129C185.096 15.1161 185.888 15.9643 186.453 17.0576C187.019 18.1321 187.301 19.3856 187.301 20.8182V22.034H177.094C177.132 22.9953 177.49 23.7776 178.169 24.3808C178.847 24.984 179.677 25.2856 180.657 25.2856C181.656 25.2856 182.391 25.0688 182.862 24.6353C183.333 24.2017 183.692 23.7211 183.937 23.1933L186.849 24.7201C186.585 25.2102 186.199 25.7474 185.69 26.3318C185.2 26.8973 184.54 27.3874 183.71 27.8021C182.881 28.1979 181.825 28.3958 180.544 28.3958ZM177.122 19.3762H183.682C183.607 18.5656 183.277 17.9153 182.693 17.4252C182.127 16.9351 181.383 16.69 180.459 16.69C179.498 16.69 178.734 16.9351 178.169 17.4252C177.603 17.9153 177.254 18.5656 177.122 19.3762Z" fill="white"/>
</svg>
