<?xml version="1.0"?>
<svg width="122.64" height="122.88" xmlns="http://www.w3.org/2000/svg" xmlns:svg="http://www.w3.org/2000/svg" data-name="Layer 1">
 <title>stories</title>
 <g class="layer">
  <title>Layer 1</title>
  <path d="m104,31.15c2.31,5.65 5.11,11.94 6.52,17.55a51.83,51.83 0 0 1 1.54,15.24a50.9,50.9 0 0 1 -3,15a49.87,49.87 0 0 1 -7.24,13.23a49.12,49.12 0 0 1 -10.82,10.32l0,0a54.85,54.85 0 0 1 -4.74,3q-2.44,1.38 -5,2.49a52,52 0 0 1 -11.38,3.56a49.5,49.5 0 0 1 -11.67,0.82l-1.21,-0.08l-2.76,10.28l1.89,0.15a60.44,60.44 0 0 0 14.92,-0.71a63,63 0 0 0 14.51,-4.42q2.94,-1.3 5.83,-2.93c1.87,-1.06 3.75,-2.25 5.62,-3.55a59.59,59.59 0 0 0 21.99,-28.62a61.68,61.68 0 0 0 1.7,-36.38c-2,-5.77 -4.18,-13.39 -8.31,-19.22c-2.73,-3.86 -10.73,-1.57 -8.35,4.27l-0.04,0zm-48,13.59a5.34,5.34 0 1 1 10.67,0l0,11.36l11.33,0a5.34,5.34 0 0 1 0,10.68l-11.34,0l0,11.36a5.34,5.34 0 1 1 -10.67,0l0,-11.36l-11.37,0a5.34,5.34 0 1 1 0,-10.68l11.38,0l0,-11.36zm-31.75,65.62a59.9,59.9 0 0 0 11.46,7l1.69,0.79l2.75,-10.25l-1.15,-0.55a49.27,49.27 0 0 1 -8.38,-5.28a50.34,50.34 0 0 1 -7.25,-6.93l-0.85,-1l-9.17,5.29l1.18,1.43a61.27,61.27 0 0 0 9.72,9.48l0,0.02zm-23.68,-40.83a59.49,59.49 0 0 0 3.43,13.14l0.65,1.72l9.17,-5.29l-0.44,-1.24a49.32,49.32 0 0 1 -2.4,-9.72a48.75,48.75 0 0 1 -0.37,-10l0.07,-1.29l-10.27,-2.7l-0.17,1.85a58.82,58.82 0 0 0 0.33,13.53zm7.81,-38.53c-0.92,1.55 -1.75,3.11 -2.51,4.7l-0.81,1.7l10.25,2.75l0.58,-1.15c0.58,-1.13 1.19,-2.23 1.83,-3.29s1.35,-2.13 2.1,-3.17a61.6,61.6 0 0 1 3.9,-4.93a53.89,53.89 0 0 1 4.28,-4.39l0.93,-0.85l-5.31,-9.21l-1.44,1.25a66.4,66.4 0 0 0 -5.74,5.65a72.56,72.56 0 0 0 -5.15,6.41c-1.05,1.48 -2,3 -2.92,4.5l0.01,0.03zm42.06,-30.22a54.27,54.27 0 0 0 -10.17,2.74l-1.74,0.65l5.3,9.18l1.22,-0.43a44.39,44.39 0 0 1 15.71,-2.43c1.21,0 2.48,0.11 3.79,0.26s2.51,0.33 3.74,0.58s2.55,0.56 3.8,0.93s2.5,0.8 3.79,1.3l0,0a5.24,5.24 0 1 0 3.79,-9.77c-1.52,-0.59 -3.08,-1.12 -4.67,-1.59s-3.12,-0.84 -4.65,-1.15s-3.07,-0.55 -4.59,-0.72s-3.13,-0.28 -4.76,-0.33a55.87,55.87 0 0 0 -10.56,0.78z" fill="#6a0bef" id="svg_1"/>
 </g>
</svg>